<svg id="Layer_1" data-name="Layer 1" xmlns="http://www.w3.org/2000/svg" viewBox="0 0 600 900"><defs><style>.cls-1{fill:none;stroke:#000;stroke-miterlimit:10}.cls-2{fill:#1d1d1b}.cls-3{fill:#ff4d4d}</style></defs><title>ob_cover_05</title><path class="cls-1" d="M0 0l600 900m0-900L0 900"/><path class="cls-2" d="M268 318.26l22.68 85.68h-18l-4-18.12h-22.8l-4 18.12h-18l22.68-85.68zm-2.28 53.4l-8.28-38.52h-.24l-8.28 38.52zm71.73 5.28h.24v-58.68h15.84v85.68h-19.68l-21.12-60h-.24v60h-15.84v-85.68h19.92zm78.24-44.52H397v71.52h-17.31v-71.52H361v-14.16h54.72zm-168.48 95.84V461h20.16v-32.74h17.28v85.68h-17.28v-38h-20.16v38h-17.28v-85.68zm48.54 24.9a39.77 39.77 0 0 1 4-14.1 22.18 22.18 0 0 1 8.82-9.18q5.76-3.3 15.48-3.3t15.48 3.3a22.18 22.18 0 0 1 8.82 9.18 39.77 39.77 0 0 1 4 14.1 180 180 0 0 1 0 35.94 39.66 39.66 0 0 1-4 14 21 21 0 0 1-8.82 9q-5.76 3.12-15.48 3.12t-15.48-3.12a21 21 0 0 1-8.82-9 39.66 39.66 0 0 1-4-14 180 180 0 0 1 0-35.94zm16.8 32.64a40.79 40.79 0 0 0 1.68 9.84 10.93 10.93 0 0 0 3.6 5.52 11.84 11.84 0 0 0 12.36 0 10.93 10.93 0 0 0 3.6-5.52 40.84 40.84 0 0 0 1.68-9.84q.42-6.06.42-14.7t-.42-14.64a41.58 41.58 0 0 0-1.68-9.84 11 11 0 0 0-3.6-5.58 11.84 11.84 0 0 0-12.36 0 11 11 0 0 0-3.6 5.58 41.54 41.54 0 0 0-1.68 9.84q-.42 6-.42 14.64t.42 14.7zm50.82-57.54h17.28v71.52h30.6v14.16h-47.88zM229 563.16a39.78 39.78 0 0 1 4-14.1 22.18 22.18 0 0 1 8.82-9.18q5.76-3.3 15.48-3.3t15.48 3.3a22.18 22.18 0 0 1 8.82 9.18 39.78 39.78 0 0 1 4 14.1 180 180 0 0 1 0 35.94 39.66 39.66 0 0 1-4 14 21 21 0 0 1-8.82 9q-5.76 3.12-15.48 3.12t-15.48-3.12a21 21 0 0 1-8.82-9 39.66 39.66 0 0 1-4-14 180 180 0 0 1 0-35.94zm16.8 32.64a40.79 40.79 0 0 0 1.68 9.84 10.93 10.93 0 0 0 3.6 5.52 11.84 11.84 0 0 0 12.36 0 10.93 10.93 0 0 0 3.6-5.52 40.84 40.84 0 0 0 1.68-9.84q.42-6.06.42-14.7t-.42-14.64a41.59 41.59 0 0 0-1.68-9.84 11 11 0 0 0-3.6-5.58 11.85 11.85 0 0 0-12.36 0 11 11 0 0 0-3.6 5.58 41.55 41.55 0 0 0-1.68 9.84q-.42 6-.42 14.64t.45 14.7zm88.35-37.02a16.07 16.07 0 0 0-1.74-4.62 11.21 11.21 0 0 0-3.06-3.48 7.35 7.35 0 0 0-4.5-1.38q-6.24 0-9 7t-2.76 23q0 7.68.48 13.92a53.78 53.78 0 0 0 1.74 10.62 15.31 15.31 0 0 0 3.6 6.72 8.2 8.2 0 0 0 6.09 2.34 8.39 8.39 0 0 0 3.42-.84 11.28 11.28 0 0 0 3.48-2.52 13.61 13.61 0 0 0 2.7-4.26 15.61 15.61 0 0 0 1.08-6.06v-8.76h-11.4v-12.72h28v46.2h-12.79V616h-.24a18.2 18.2 0 0 1-7.5 7.14 24.11 24.11 0 0 1-10.5 2.1q-7.92 0-12.9-2.76a18.84 18.84 0 0 1-7.8-8.52 43.51 43.51 0 0 1-3.78-14.22 175.84 175.84 0 0 1-1-19.62 114.84 114.84 0 0 1 1.38-19 37.87 37.87 0 0 1 4.74-13.62 21.65 21.65 0 0 1 8.88-8.22q5.52-2.76 13.8-2.76 14.16 0 20.4 7t6.24 20.1h-16.52a23.42 23.42 0 0 0-.54-4.84zm54.3 12.6h.24l12-33.12h18.72l-22.2 52v33.72h-17.28v-33.76l-22.2-52h19.44z"/><path class="cls-3" d="M445.28 366.58c-.3-.4-.6 0-.14 1.19l.91.69zm1.44 8.74c.76 1.37 1.82 2.9 2.11 1.77-1.05-1.27-.91-1.7-2.11-3-.46-1.22-.47-2.24-.17-2.1-.3-.39-.46-2-1.07-2.53a13.33 13.33 0 0 0 1.7 5.85c-.01.48-.31.08-.46.01zm13.34 124.87l.27-.77a5.46 5.46 0 0 0-.27.77zm-42.26 63.37c.49-.33.66-.52.65-.59-.45.34-.79.62-.65.59zM405.79 569l.73-.27a1.92 1.92 0 0 0-.73.27zm54.27-68.81l-.71 2c.17.17.41-1.02.71-2zm-6.75-108.48a7 7 0 0 0-.49-1.05l.37 1zm9.85 74.19v-.64a3.38 3.38 0 0 0-.27-.52zm-2.27-26.39c.06.6.65.72.93.92a2.72 2.72 0 0 1-.57-1.24c-.11 0-.25.09-.36.32zm-8.13-41.41l-.28-.7zm9.38 86.68a.52.52 0 0 0-.23.21c.09.01.14-.07.23-.21zM345.21 272.19v.1c.16-.06.21-.1 0-.1zm30.99 3.48h-.43a.84.84 0 0 0-.11.31zm6.19 298.83h.11c.62-.16.26-.09-.11 0zM172 519c1.4 2.18-3.32-2.53-1.07.62-.12-.44 2.99 1.85 1.07-.62zm281.44-126.6l.31 1.05a9.44 9.44 0 0 0-.31-1.05zM170.9 519.58l.24.32zM326.19 575a1.8 1.8 0 0 0 .56.28c-.01-.02-.14-.1-.56-.28zm42.09 1.94h-1a9.94 9.94 0 0 0 1 0zM304.29 574a6.87 6.87 0 0 0-1.52-.21l.23.1a3.31 3.31 0 0 1 1.29.11zm-22.59-3c.11.06.26.12.4.18l.72.08zm-5.93-290.28a3.67 3.67 0 0 1 1.15.25c-.43-.31 2.84-1.22-1.15-.25zM453 391.81a1 1 0 0 1 .42.59l-.24-.72c-.09-.05-.18-.04-.18.13zM302.89 578.29l-3.63-.5c1.02.21 2.34.36 3.63.5zM147.42 377.16l.3-.79a2.82 2.82 0 0 0-.3.79zm141.06 199.33a11.18 11.18 0 0 0-2-.7 1.86 1.86 0 0 0-.44.08zM276.94 281z"/><path class="cls-3" d="M300.42 275.15c-3.47.5-1.52 1-2.19 1.48-4.09.82-2-.25-3.46-.42-2.54.64-4.38 1.71-6.29 2-.16-.09-.54-.07-.14-.3a32.61 32.61 0 0 1-5.34 1.39 29.87 29.87 0 0 0-5.6 1.76 1 1 0 0 1-.45-.08c.59.24.75.59.71.88-1.52.37-2.7 1.11-3.39.78a2.73 2.73 0 0 0 1.37-.66l-1.54.58c-1.6-.34 2.12-.74 2-1.24-1.53.48-3.17 1-4.71 1.59a27.76 27.76 0 0 1-4.19 1.33c-.67-.52 5.45-1.77 2.15-1.47 1.24-.26 2.47-.53 3.73-.71-3.09-.38 2.26-.45-.61-1-4.89 1.07-5.31 1.83-10.17 3-1 .67.52.43-.45 1.1a25.83 25.83 0 0 1-3.74 1.21 9.73 9.73 0 0 1-2.2.19 7.61 7.61 0 0 0-4.55 1.19c-1.13.86-1.35 1.79-4.94 2.73l.91-1.18c-4.54 1.69-2.17 2-7.08 3.4.72-.61 3.45-1.62 2.73-1.44-3.29.64-2 1.24-4.34 2.17l-.74-.41c-4.65 2.27-9.69 4.89-14.62 7.77.19-.33 1-1-.33-.53-1.56.91-3.19 1.81-4.86 2.68l-5 2.84c-1.67.93-3.34 1.84-5 2.73s-3.15 1.9-4.66 2.79l-1.86 2c-.51.34-1.1.43-.61 0-2.37 1.36.1.38-.84 1.31-1.25.9-1.88.88-1.17.18-.93.75-2 1.77-3.19 2.81s-2.5 2.16-3.77 3.32c-2.61 2.25-5.18 4.57-7.28 6l.62-.78a10.69 10.69 0 0 0-2.72 3.16 9.64 9.64 0 0 1-2.66 2.89l.41-.57c-6.25 5.83-11.85 13.4-16.41 18.1 0 .75-1.33 2.4-2.56 4s-2.26 3.25-1.93 3.8l-2.94 3.35a38.91 38.91 0 0 0-3.49 4.81c-.94 1.58-.76 2.72-1.68 4.79l-.57-.24-.86 3c-.47.37-1 .74-1.41 1.13l-.78 2c.4-.75 1-1.5 1.13-1.31a30.56 30.56 0 0 1-2.41 4.72 8.27 8.27 0 0 1-1.69 2.4c-.92 2.46-1.68 5-2.47 7.49a8.24 8.24 0 0 1 .46-2.54c-.92 4.15-.93.47-1.7 4.3.3-.44.25.39.34.51a27.56 27.56 0 0 0-1.69 3.94c-.53 1.66-1 3.49-1.44 5.06l-.23-.71a134.25 134.25 0 0 0-3.88 18.52c.58-2.3 1.21-1.64 1 .26l-.74.67c.24 1.29.5-2 .66.64-.39 2.41-.95 1.54-1 .11l-.16 3c-.22.15-.23-.55-.45-.77.18 1.25-1.15 5.09-.61 6.91l-.21.16c-.1 1.65-.12 3.07-.16 4.37v1.85l.05 1.73.11 3.35c0 1.14.15 2.33.22 3.67.59.07.5 2.18 1.14 3.72a74.5 74.5 0 0 0 1.29 13c.94 3.21.66.86 1.29 2.25-.51.36.77 4.93-.22 2.64l1 3.53c.3 1 .64 1.92 1 2.87s.68 1.94 1.13 3.11l1.8 4.13c-.08-.81-.3-1.66 0-1.3.53 1.19.84 2.85.56 2.76l-.19-.29a49 49 0 0 1 2.69 5.82c.84 2.06 1.81 4.12 2.66 6.19l.66 1.53.74 1.45c.5 1 1 1.89 1.49 2.77a26.85 26.85 0 0 0 1.54 2.47 22 22 0 0 0 1.68 2l-.25-.27c1.43 1.72 2.76 3.5 4.3 5.11 1.8 2.48-1.43-1.22-.3.76 1.27 1.3 2.33 2.51 3.27 3.67s1.88 2.17 2.73 3.2 1.64 2.08 2.57 3 1.9 1.92 3 2.89a11.34 11.34 0 0 0 1.09 1.76 21 21 0 0 0 1.7 1.91c1.3 1.3 2.8 2.76 4.43 4.12s3.35 2.72 4.89 4a40.07 40.07 0 0 1 4.11 3.62l-.07-.5c1.48.69 1.38 1.37 2.3 2.11 0-.3-1.2-1.29-.3-.84 1.4.94 2.81 1.89 4.22 2.87l2.11 1.47 2.17 1.41c1.45.94 2.88 1.94 4.34 2.88l4.45 2.78a167.65 167.65 0 0 0 18.49 10 7.1 7.1 0 0 0 4.11.88c1 0 2 .1 4.83 1.66h-1.92c9.78 2.93 19.72 6.81 29.56 8.5a3.69 3.69 0 0 1-1.62 0c1.91 1 7.57 1.79 7.68 1.42 1.5.38.27.42 1.16.83 2 .74 5.3.44 6.31 1.14.17.11-.61 0-1 0 .7 0 2.26.36 3.51.55s2.17.29 1.57-.1a50.12 50.12 0 0 0 5.25.93 34.41 34.41 0 0 1 4.7.78c2-.29 6.27 1.18 7 .4-.19.43 1.4.84 3.34 1.09a34.9 34.9 0 0 0 5.42.28c-.81.18 2 .52 1 .79 2.67.26 5.14.33 4.72-.18a22.53 22.53 0 0 0 7.12.79c2.22 0 4.16 0 5.5.81l22.48.29c-.3.9-7.9-.29-7.64.66 6.8 0 10.74-.6 17.47-.23 1.74.16-1 .37-1.59.51 6.8-.2 13.19.2 19.24-.64a4 4 0 0 1-1.28.31c1.2-.09 2.8 0 2.63-.42-.39.07-.77.12-1.16.18-1-.26.2-.59 1.63-1a21.48 21.48 0 0 0 3.2-.92c-1.91 1.39 6-.33 2.93 1.48.78-.16 1.74-.46 1.53-.71 1.17-.06 1.56 0 .42.51a18.25 18.25 0 0 0 3.41-.9 17.24 17.24 0 0 1 3.1-.76c0 .2-.74.41-1.1.71.94-.37 1.88-.73 3-1.06a29.49 29.49 0 0 1 4-1c-.17.16.24.23-.72.44a31.72 31.72 0 0 0 3.84-1.14l1.77-.63 1.73-.71c2.31-.92 4.65-1.92 7.59-2.92-1.35 1.53 2-.58 2.66 0 1-.49 2-1.11 2.93-1.7l-1.36.3c1.31-.68 2.47-1.44 3.6-2.15.56-.36 1.12-.7 1.68-1s1.07-.69 1.64-1c-.56.47-1.1 1-1.69 1.42 1.56-1 3-2.05 4.57-3.08l-2.76 1.45c2.28-1.93-.77-.63 2.59-2.55-.31.24.3-.15 1.18-.66a17.29 17.29 0 0 1 2.65-1.58c.5-.54 1-1.08 1.6-1.63s1.33-1.09 2.16-1.77c.57-.2.21.93.58.8.63-1.44 5-4.71 5.65-6.59-.3.55 0 .84.16.75l.45-1.22c1-.88 1.23-1 1.31-.6 1.43-1.46 1-1.38.72-1.34-.15 0-.28 0-.15-.18s.54-.6 1.36-1.48a7 7 0 0 1-.47.89c1.59-1.82 3-3.69 4.36-5.54s2.46-3.8 3.82-5.56c1.38-.67-2.06 3.3-.68 2.42.44-.67.89-1.36 1.32-2.05l1.17-2.18c.76-1.47 1.55-2.93 2.28-4.41 1.32-3 2.8-5.94 4-8.78l-.54 1c-.31-.61.27-1.61 1-2.84.38-.62.81-1.29 1.19-2a10.08 10.08 0 0 0 .79-2.28c-.19.75.2 1.16.16.92.41-1 .79-2 1.16-3a33.1 33.1 0 0 0 1-3.34l.93-3.8.51-2.09.44-2.28.07.84c.42-1.18.85-2.77 1.27-4.39.23-.81.4-1.63.56-2.42s.32-1.53.48-2.19c-.12-.84.22-2.35-.35-1.5a24.4 24.4 0 0 0 1.48-5.95c.14-1 .25-2 .34-2.95s.07-2 .1-2.92l.15-5.7a30.58 30.58 0 0 1 .59-5.55c0 .88.17 2.11.19 1.41 0-2.1-.15-4.2-.23-6.29-.46.5-.27.83-.62 2.15a15.59 15.59 0 0 1-.52-4.1c.32 2.8.77 0 1-1.27-.13.21-.31-.2-.45-.1.67-3.3-1-.51-.61-5l.25.22c-.17-1.66-.68-3.17-.74-5 .47-.79.4 1.75.85 1.83-.26-2.53-1.38-4.89-1.15-7.21.28 1 .45 2.58.67 3.64a13.9 13.9 0 0 0 .08-4.68v.18l-.22-4.3v1.11a12.83 12.83 0 0 1-1.46-4.79 21.9 21.9 0 0 0-1.32-5.62c1.58 3.93.61.59 1.27.8 0-1.1-.13-2.77.12-2.34-.83-1.9-.2-3.4-1.49-6.06.17-.16-.41-2.12.16-1.77-.68-2.55-.21.68-.49.51a38.35 38.35 0 0 1-1.45-6.85 33.38 33.38 0 0 0-2.09-8.06c-1.61-4.76-2.48-5.49-4-9.87-.12-1.59 1 1 1 1a30 30 0 0 0-1.83-6.56c.3.42.3-.1.3-.86-.59-1.82-1-1-1.47-3.53a7.47 7.47 0 0 1 1.29 1.61c-.8-2.12-1.77-4.15-2.62-6.33.15-.69.9 1.2 1.35 1.92-.91-2.47-2.25-6.42-3-7l.31 1.66c-.3-.91.3-.61.6 0 1.05 2 .76 3.16.61 3.33l-.6-1.55c-.59 2 2.09 6.33 3 9.56l-1.19-1.1 1.62 3.1c0 .76-.32 1.37-.89-.18.25 2.42.86 2 1 4.06 0 .24-.07.15-.16 0l.87 2.18c-.29-.39-.46.53-.73-.88.66 4.16 2.35 6.37 2.15 8.05l-.14-.33c1.7 5.57.73.39 2.48 4.46l-.76 3.21.72.42c.11.59.33 1.76 0 1.6.9 2.08.17-.43.85.75.13 2.93 1.94 7.74 1.11 8.57.66.93-.2-2.78.73.18-.83 1.06.86 3.47.84 6.16-.67-.7-.83-3.21-.84-.53a6.24 6.24 0 0 1 .86 3.34 24.7 24.7 0 0 0 .29 3.91c.37 0 .62 1.18.88 2.82s.42 3.75.76 5.59c-.23-.21.31 7 .2 10.48l-.09-.1a5 5 0 0 1 .72 2.66c.15 1.3.22 2.84.28 4.14-.44-.09-.61-.56-.83-2v2.44a9.1 9.1 0 0 1 .47 2.92l-.55-.61c0 .81.06 1.62.13 2.45l.09 2.55v2.73a17.58 17.58 0 0 1-.28 3c.49.28 1.7-3.25 1.67 1.22-.29.15-.78.27-.79-.89a8.5 8.5 0 0 1-.06 2.12l-.32-1.8c-.36 1.88.31 1 .14 2.54-.39-.07-.37 1.1-.67.85a10.26 10.26 0 0 0 .17-1.9 14.88 14.88 0 0 1-1 4.38c.24-.12.53.06.41 1.31-.41 3.22-.62 1-1.08 2.88a8.17 8.17 0 0 1-.06 1.73c-.06.62-.1 1.15.19 1.23a2.48 2.48 0 0 1-.71 1.38c0 .84-.38 2.77-.6 4.27s-.44 2.54.1 1.7l.14-.41v.27a38.84 38.84 0 0 1-2.1 8.21l-1.43 4c-.51 1.32-1 2.61-1.43 3.92l-.18-.08c-.83 3.18-2.66 6.74-3.18 9.07-.38.89-1.35 1.88-1.36 1.42a24.64 24.64 0 0 1-2.91 5.66c.92-2.35-.64.63 1-2.38-.41.7-.74 1.26-1.06 1.74s-.63.88-.9 1.31a19.16 19.16 0 0 0-1.7 3.41c.09-.64-.36-.2-.91.56a27.17 27.17 0 0 0-1.67 2.47l1.58-1.65c-.92 1.45-1.81 2.67-2.72 3.9l-.07-1.06c-.55.61-1 1.24-1.5 1.86s-1 1.2-1.39 1.8c-.88 1.2-1.65 2.41-2.4 3.58a29.21 29.21 0 0 1-2.51 3.13 11.79 11.79 0 0 1-3 2.43c-.48.74.26.23 1-.36s1.4-1.22 1.07-.46a16.68 16.68 0 0 1-3.51 2.61 23.9 23.9 0 0 0-2.36 1.5c-.8.64-1.39 1.1-1.84 1.53a10.54 10.54 0 0 0-1.06 1.23 10.66 10.66 0 0 1-3.05 2.85c.59-.11 1.42.12-1.21 2.08-2.63 1.59-3.66 1.18-2.17 0 .6-.41.93-.54.95-.45.77-.6 1.79-1.38.64-.95l-.2.41c-.69.3-1.9 1-2.86 1.56s-1.71.8-1.37.42c-1.89 1.24-.65.81.87.09-1.77.79-3.11 1.46-4.44 2.18-.67.35-1.33.73-2.07 1.09s-1.57.65-2.5 1c.63-.13 1.27-.11.7.14-2.72 1.06-3.32 1.29-3.63 1.62s-.41.56-2.26 1.3c-2.27.34.49-1.06-3.21.44-2.39.5-.66-.45.19-.92-3.32 1.52-6.58 1.49-8.6 1.83l1.81-.6a28.09 28.09 0 0 1-2.91.76l1.15.23c-1.1.18-2 .33-2.06.13-1.08.51 1 .62-1.17 1.44-1.51.07-4.49 1-5.1.42 4.71-.46-.6-.54 3.32-1.23a14 14 0 0 1-2.8.4c-.18 0 .14-.15.44-.23-4.52.07-2 1-6.61 1.5.56-.4-1.14-.58-1.9-.45 1.88-.14 1 .52-.76.93-3 0-3.26.4-4.84.47h1.81c-.59.37-2.11.44-4.22.61-.19-.26 1.91-.25 1.15-.35-2.33.7-5.31-.49-8.57-.07-1.51-.24-.15-.66-1.47-.84-3.67.43-4-.53-7.81-.25 1.09.5 1.3.41-1.44.77 2.12 0 4.23-.1 6.35-.17l-4.08.6c1.92.06 4-.19 5.19-.11-1.94.37-1.75.25-.83.66-2.61-.76-5.21.31-8.24-.29l.14-1.18c-4.53-.7-8.12.25-14-.37l1.89.31c-.82.44-3.66-.15-5.59-.08.2-.38-1-.6-1.79-.9.08.31-4.32-.33-4.91.42l-2.6-.71c-4.74-.61-5.53.69-10.11.12 1.42-.29-.63-.77 2.46-.78-1.53-.14-2.89-.36-2.94-.09-.87-.34-4.29.12-5.65-.42a5.07 5.07 0 0 1-2.63.26c-.18-.1 0-.19 0-.19 0 .19-2.71 0-1.27.56a41 41 0 0 0-8.76-1.67c-3.2-.41-6.33-.84-8.27-1.67-3.31-.45-7.32-1-10.3-1.58.21-.08 0-.19.6 0-4-1.19-2.77.66-7.34-.79-2.24-1.16 2.55.22 1.12-.35-.36-1.42-5.66-1-8.58-2.62l.77.12a17.11 17.11 0 0 0-4.28-1 44.75 44.75 0 0 1-5.44-1.2s.22-.06.08-.18a29.92 29.92 0 0 1-5.43-.92c-1-.24-2.1-.51-3.14-.78l-3-.88c1.3-.08 1.74.33 1.22-.4-1.65-.5.21 1-3.1-.06-.48-.32-1.29-.74-2-1.16s-1.28-.89-1.33-1.2q1.51.59 3.05 1.1c-1.33-1.19-3.93-1.46-5.49-2.19l.32-.21c-1.16-.43-2.06-.7-2.83-.91s-1.38-.39-2-.55a28.45 28.45 0 0 1-5-1.8l.41.44c-3-.53-2-1.45-4.91-2.19l-.45-1.09c-.92-.31-2.5-.93-4.24-1.65a57 57 0 0 1-5.21-2.34c2 .52 5.72 2.08 8.06 3-1.67-.91-5.74-3-6.8-3.13a12.31 12.31 0 0 1 2.27 1.06 31.09 31.09 0 0 1-8.47-3.81c.68-.46-1.35-1.89-3.76-3.51L195 539c-.6-.44-1.18-.88-1.71-1.31a10.89 10.89 0 0 1-2.32-2.3c-5.73-3.51-10.43-8.23-16.05-13.56 1.19 2.76-1.68-1.53-2.18-.33a9.48 9.48 0 0 1-1.86-1.93c-1.09-1.51-2.21-3-3.27-4.5-.29-.61 0-.33.45.06s1 .86 1 .71c-2.6-3-.73-1.58-2.2-3.75 0 .69-1.37-.63-2.71-2.44l1.64 2.77a17 17 0 0 1-2.17-2.32 10.6 10.6 0 0 1-1-1.76 13.45 13.45 0 0 0-3-4.22l1.38 1.16c-2-2.09-6-8.57-8.21-10.52-.14-.51-.19-1.24.53-.21-.42-.74-.88-1.49-1.35-2.24l-1.31-2.31c-.89-1.59-1.92-3.14-2.75-4.75s-1.61-3.18-2.3-4.67a24.32 24.32 0 0 1-1.47-4.24l.46.38c-.5-1.16-1.36-1.87-1.52-3.5.14 0 .44.39.28-.17a21.53 21.53 0 0 1-1.82-4.73c.22.44.47.87.72 1.29-.4-1.61-.71-3-1.12-4.33-.2-.65-.41-1.26-.61-1.86l-.53-1.82-1.15-3.46a54.46 54.46 0 0 1-.89-3.82c.81-.11.5-5.33.45-7.94l.13.08c-.41-7.68-1.1-13.11-.79-20.34.31-1.1.66-2.57 1-4.28l.46-2.73.56-3c.34-2 .82-4.12 1.3-6.14a55 55 0 0 1 1.64-5.65c-.43 1-.62-.35-.38-1.61.65-1.57.77-4.65 1.46-4.16l-.19.57c1.08-1 2-4.31 2.93-6.86l-.84-.78a34 34 0 0 0 2.72-5.34c.9-1.93 1.66-4 2.51-6 1.63-3.92 3.31-7.4 4.81-8.79.6-1.62 1.67-3.45 2.28-5.06l.44.37 3.29-5.08 3.8-5.75c-.12.4-.25.8-.35 1.21 1.94-2.65 1.08-4.35 2.91-6.82l1.24-.21c3.49-4.62 7.89-8.5 11.25-13.15 0 .15.08.44-.54 1.14l4.4-4.27c1.55-1.49 2.67-2.78 1.92-2.86.28.25 1.36-.77 2.69-2.09s2.82-3 3.94-4.13v.74c.78-1.11 1.17-1.72 1.69-2.36.26-.32.56-.65 1-1.06s.94-.85 1.64-1.45.88-.11-.13.48a7.29 7.29 0 0 0 2.05-1.71 7.69 7.69 0 0 1 2.48-1.92l-.88 1a10.17 10.17 0 0 0 3.32-3c1.43-1.26 4.79-3.11 5.42-2.94a6.81 6.81 0 0 1 3-2.47c.3 0-.19.47-.43.69a34.86 34.86 0 0 0 5.13-3.21c.68-.49 1.32-1 2-1.37a12.17 12.17 0 0 1 2.25-1 .73.73 0 0 0 .68 0l-2.49 1.29-1.94 1.14a16.34 16.34 0 0 1-1.6.9c.26.44 3.05-1.13 1.23.8l1.73-1.45c.32-.27.65-.55 1-.82l1.1-.78a27.54 27.54 0 0 1 4.55-2.67 1.61 1.61 0 0 1 .45 0l-.26.2a9.21 9.21 0 0 0 1.72-1c.92-.39 1.51-.63 2.37-1.06.52.23 3.45-1.31 4.92-2-.36-.46 1.6-1.24-.39-.85.25-.07-.25.19-1.21.65a6.62 6.62 0 0 0-.6.34l.08-.09c-.95.46-2.22 1-3.6 1.71a9.42 9.42 0 0 1 3.87-2c.6-.67 1.27-1.38 1.67-1.75 2.34-.2 6.35-1.57 7.11-1.27 2.22-1 4.88-2.13 7.31-3.24l1.77-.82c.58-.25 1.13-.49 1.64-.74a15.21 15.21 0 0 0 2.56-1.49 3.13 3.13 0 0 1 2.17-.23 18.8 18.8 0 0 0-2 .93c1.28-.57 3.23-1.25 4.92-1.9s3.14-1.16 3.35-1.63c3.49-.64-1.71 1.19 2.91-.24l-.57.39a38 38 0 0 0 6.4-1.57c2-.59 3.84-1.24 5.73-1.91s3.83-1.34 6-1.87a42.45 42.45 0 0 1 7.15-.93 3.27 3.27 0 0 1-1.27 0c11.93-1.56 24.49-4.49 36.47-4.15a13.88 13.88 0 0 0 3.38-.35c.76-.17 1.36-.4 2.38-.62l.76.57 3.5-.84c5-.78 8.7 1.25 15 .21l-.82-.4c2.28 0 7.22-.15 6.83.29a2.35 2.35 0 0 1 1.64-.18l.06.32 5.61-.43c4.33.43-.72 1.22 5.59 1.58 2.35 0 6.73-.6 5.87-.85-.95-.06-2.41-.31-2.47-.63l2.16-.06c.44-.91 2.17-1.78-3.11-2.69l-3.73.39-1.17-.51 3.12.12a8.19 8.19 0 0 0-4.15 0 3.19 3.19 0 0 0-1.53-.57c-1.22.24-2.45.54-3.67.8-.43-.37 1.65-.69-.79-.94-1.72.38 1.61.85-1.21 1.06-1.76-.46-1.24-.79-3.33-.47-.29-.25.15-.39 1-.48-1.86.25-4.91 0-5.87.55-1.85-.5-6.25.2-6.08-.68a27.67 27.67 0 0 1-5 .81c3.08-1.18-6.37.2-5.6-1a18.94 18.94 0 0 1-5.51.87c-2.3.22-4.82.41-6.83.83a2.56 2.56 0 0 1 1-.26 33.24 33.24 0 0 1-4.48-.21c-.23.76-3.77 1.34-5.63 2-2.88-.44 1.6-1.1.65-1.73.2.62-4.8 1.17-3.79 1.59-2.2-.23-1.87 0-3.06-.54-.25 1-2 .41-3.66 1.28-3.15 0-.92-.79-4.27 0-1.81.15 1.16-.64 1.16-.64zM223.3 301l1.48-.81zm-6 3.23c.71-.43 1.65-.89 2.62-1.4.31.06.17.35-.44.66.23-.31-1.28.29-2.22.7zm14.5-3.23c-.93.51-1.31.56-1.49.52.45-.22 1-.48 1.67-.83 0 0 .07-.08.09-.11a1 1 0 0 1-.27.42z"/><path class="cls-3" d="M233.23 299.59c.14-.08.2-.13.38-.22l-.63.15-.27.32zm227.15 199.69v.14a1.28 1.28 0 0 1 .15-.27 1.06 1.06 0 0 1-.15.13zM150.63 370.17l.13.05.17-.59-.3.54zm315.03 92.07a1.26 1.26 0 0 0 .12-.5 1.62 1.62 0 0 0-.12.5zM464.55 446l-.07-2.31c0 1.01.03 1.73.07 2.31zm-1.49-12.42a.64.64 0 0 0-.28-.2zm-93.74 147.07h-.48c-1.14.22-.37.14.48 0zm55.48-19.36c-.44.47-.87.93-1.35 1.39.86-.62 1.55-1.12 1.35-1.39zm-121.51 17.06h-.41zm117.87-14.11a8.47 8.47 0 0 0 2.29-1.57c-.7.53-1.6 1.02-2.29 1.57zM450.2 381l-.15-.58h-.11zm-.26-.58l-.26-.62a1.76 1.76 0 0 0 .26.62zm-.81-1.92l.55 1.3a3.73 3.73 0 0 0-.55-1.3zm5.46 18.5l.25.13a.28.28 0 0 0-.25-.13zm1.41 4.78a31.46 31.46 0 0 0-.95-4.59l-.2-.11c.49.68.52 3.68 1.15 4.7zm2.47 20.9c-.21-1.38-.5-2.74-.74-4.12 0 .76-.12 1.76-.59-.08.51 5.27.25-1.17 1.33 4.2zm2.1 12.78c-.49-2.19-.31.08-.45 0 .41 1.35.51 1.68.45 0zm-10.38 90.99l-.36-.43c-.71 1.56.17.11.36.43zm-7.05 16.72l1.24-1.22.08-.94-1.32 2.16zm-9.53 5.83l.45-.6-1.79 2.2 1.34-1.6zm-147.83 22.09l.42.7c1.18.07 1.52-.59-.42-.7zm-65.1-17.64a8 8 0 0 0-3.35-1.82c1.35.69 2.6 1.59 3.35 1.82zm-73.06-164.77l-.3 1.33.76-2.43-.46 1.1z"/></svg>